<svg xmlns="http://www.w3.org/2000/svg" width="1200" height="410" viewBox="0 0 1200 410" role="img" aria-label="Live portfolio intelligence"><rect width="1200" height="410" rx="26" fill="#07101d"/><text x="42" y="44" fill="#94a3b8" font-family="Arial" font-size="13" font-weight="700" letter-spacing="2">LIVE PORTFOLIO INTELLIGENCE</text><text x="42" y="70" fill="#cbd5e1" font-family="Arial" font-size="12">Bundled verified baseline · live refresh runs after workflow activation · snapshot 2026-08-10</text><rect x="920" y="31" width="238" height="46" rx="12" fill="#0f172a" stroke="#26364e"/><circle cx="946" cy="54" r="7" fill="#22c55e"/><text x="966" y="60" fill="#f8fafc" font-family="Arial" font-size="14" font-weight="700">CLAIMS VERIFIED 6/6</text><rect x="42" y="104" width="536" height="256" rx="21" fill="#0f172a" stroke="#26364e"/><rect x="42" y="104" width="7" height="256" rx="3" fill="#60a5fa"/><text x="76" y="145" fill="#f8fafc" font-family="Arial" font-size="25" font-weight="800">SentinelForge</text><text x="76" y="171" fill="#60a5fa" font-family="Arial" font-size="13" font-weight="700">DETECTION ENGINEERING PLATFORM</text><text x="76" y="205" fill="#cbd5e1" font-family="Arial" font-size="13">Language  Python</text><text x="76" y="229" fill="#cbd5e1" font-family="Arial" font-size="13">Release   v0.2.0</text><text x="76" y="253" fill="#cbd5e1" font-family="Arial" font-size="13">Last push —</text><text x="342" y="205" fill="#cbd5e1" font-family="Arial" font-size="13">Stars  0</text><text x="342" y="229" fill="#cbd5e1" font-family="Arial" font-size="13">Forks  0</text><text x="342" y="253" fill="#cbd5e1" font-family="Arial" font-size="13">License MIT</text><circle cx="81" cy="293" r="5" fill="#22c55e"/><text x="94" y="297" fill="#94a3b8" font-family="Arial" font-size="11">Curated detections · verified</text><circle cx="81" cy="313" r="5" fill="#22c55e"/><text x="94" y="317" fill="#94a3b8" font-family="Arial" font-size="11">EVTX ingestion · verified</text><circle cx="81" cy="333" r="5" fill="#22c55e"/><text x="94" y="337" fill="#94a3b8" font-family="Arial" font-size="11">MITRE ATT&amp;CK mapping · verified</text><rect x="622" y="104" width="536" height="256" rx="21" fill="#0f172a" stroke="#26364e"/><rect x="622" y="104" width="7" height="256" rx="3" fill="#2dd4bf"/><text x="656" y="145" fill="#f8fafc" font-family="Arial" font-size="25" font-weight="800">PacketScope</text><text x="656" y="171" fill="#2dd4bf" font-family="Arial" font-size="13" font-weight="700">NETWORK FORENSICS PLATFORM</text><text x="656" y="205" fill="#cbd5e1" font-family="Arial" font-size="13">Language  Python</text><text x="656" y="229" fill="#cbd5e1" font-family="Arial" font-size="13">Release   —</text><text x="656" y="253" fill="#cbd5e1" font-family="Arial" font-size="13">Last push —</text><text x="922" y="205" fill="#cbd5e1" font-family="Arial" font-size="13">Stars  0</text><text x="922" y="229" fill="#cbd5e1" font-family="Arial" font-size="13">Forks  0</text><text x="922" y="253" fill="#cbd5e1" font-family="Arial" font-size="13">License MIT</text><circle cx="661" cy="293" r="5" fill="#22c55e"/><text x="674" y="297" fill="#94a3b8" font-family="Arial" font-size="11">Automated tests · verified</text><circle cx="661" cy="313" r="5" fill="#22c55e"/><text x="674" y="317" fill="#94a3b8" font-family="Arial" font-size="11">PCAP / PCAPNG · verified</text><circle cx="661" cy="333" r="5" fill="#22c55e"/><text x="674" y="337" fill="#94a3b8" font-family="Arial" font-size="11">Evidence slicing · verified</text></svg>