<svg xmlns="http://www.w3.org/2000/svg" width="1200" height="430" viewBox="0 0 1200 430" role="img">
<rect width="1200" height="430" rx="26" fill="#0b1220"/>
<text x="42" y="43" fill="#94a3b8" font-family="Arial" font-size="13" font-weight="700" letter-spacing="2">CREDENTIAL VAULT · 14 DOCUMENTED PROGRAMS</text>
<text x="42" y="67" fill="#64748b" font-family="Arial" font-size="12">Formal training supports the public engineering evidence below and documents breadth across blue-team and validation disciplines.</text>
<rect x="42" y="96" width="724" height="280" rx="21" fill="#0f172a" stroke="#29446c"/><rect x="42" y="96" width="7" height="280" rx="3" fill="#2563eb"/>
<text x="75" y="134" fill="#93c5fd" font-family="Arial" font-size="14" font-weight="700">TRYHACKME · 10 CREDENTIALS</text>
<g font-family="Arial" font-size="13" fill="#f8fafc">
<text x="75" y="172">SOC Level 1</text><text x="390" y="172">SOC Level 2</text>
<text x="75" y="203">Security Engineer</text><text x="390" y="203">CTI – CISA JCDC Triage</text>
<text x="75" y="234">Jr Penetration Tester</text><text x="390" y="234">CompTIA PenTest+ Path</text>
<text x="75" y="265">Offensive Pentesting</text><text x="390" y="265">Web Fundamentals</text>
<text x="75" y="296">Red Teaming</text><text x="390" y="296">Advent of Cyber 2025</text>
</g>
<rect x="798" y="96" width="360" height="280" rx="21" fill="#0f172a" stroke="#453b68"/><rect x="798" y="96" width="7" height="280" rx="3" fill="#7c3aed"/>
<text x="830" y="134" fill="#c4b5fd" font-family="Arial" font-size="14" font-weight="700">ADDITIONAL TRAINING · 4</text>
<g font-family="Arial"><text x="830" y="177" fill="#f8fafc" font-size="13" font-weight="700">CompTIA PenTest+ Ethical Hacking</text><text x="830" y="198" fill="#94a3b8" font-size="11">Udemy · 2024</text>
<text x="830" y="234" fill="#f8fafc" font-size="13" font-weight="700">SuperMap GIS Solutions</text><text x="830" y="255" fill="#94a3b8" font-size="11">SuperMap GIS · 2021</text>
<text x="830" y="291" fill="#f8fafc" font-size="13" font-weight="700">Fundamentals of Computer Hacking</text><text x="830" y="312" fill="#94a3b8" font-size="11">infySEC · 2021</text>
<text x="830" y="348" fill="#f8fafc" font-size="13" font-weight="700">Cyber Security &amp; Ethical Hacking</text></g>
</svg>