<svg xmlns="http://www.w3.org/2000/svg" width="1200" height="330" viewBox="0 0 1200 330" role="img">
<rect width="1200" height="330" rx="26" fill="#0b1220"/>
<text x="42" y="42" fill="#94a3b8" font-family="Arial" font-size="13" font-weight="700" letter-spacing="2">EXECUTIVE SECURITY DASHBOARD</text>
<text x="42" y="65" fill="#64748b" font-family="Arial" font-size="12">Public engineering evidence + operational security capabilities + formal training.</text>
<g font-family="Arial">
<g transform="translate(42 94)"><rect width="210" height="176" rx="20" fill="#0f172a" stroke="#29446c"/><text x="22" y="32" fill="#93c5fd" font-size="11" font-weight="700">ROLE</text><text x="22" y="76" fill="#f8fafc" font-size="27" font-weight="800">SOC</text><text x="22" y="105" fill="#f8fafc" font-size="27" font-weight="800">ANALYST L2</text><text x="22" y="158" fill="#64748b" font-size="11">Security operations focus</text></g>
<g transform="translate(274 94)"><rect width="210" height="176" rx="20" fill="#0f172a" stroke="#29446c"/><text x="22" y="32" fill="#93c5fd" font-size="11" font-weight="700">FLAGSHIP 01</text><text x="22" y="76" fill="#f8fafc" font-size="23" font-weight="800">SentinelForge</text><text x="22" y="108" fill="#cbd5e1" font-size="13">12 curated detections</text><text x="22" y="131" fill="#cbd5e1" font-size="13">EVTX · Wazuh · ATT&amp;CK</text><text x="22" y="158" fill="#60a5fa" font-size="11" font-weight="700">DETECTION ENGINEERING</text></g>
<g transform="translate(506 94)"><rect width="210" height="176" rx="20" fill="#0f172a" stroke="#285257"/><text x="22" y="32" fill="#99f6e4" font-size="11" font-weight="700">FLAGSHIP 02</text><text x="22" y="76" fill="#f8fafc" font-size="23" font-weight="800">PacketScope</text><text x="22" y="108" fill="#cbd5e1" font-size="13">48 automated tests</text><text x="22" y="131" fill="#cbd5e1" font-size="13">PCAP · DFIR · evidence</text><text x="22" y="158" fill="#2dd4bf" font-size="11" font-weight="700">NETWORK FORENSICS</text></g>
<g transform="translate(738 94)"><rect width="210" height="176" rx="20" fill="#0f172a" stroke="#453b68"/><text x="22" y="32" fill="#c4b5fd" font-size="11" font-weight="700">CREDENTIALS</text><text x="22" y="80" fill="#f8fafc" font-size="38" font-weight="800">14</text><text x="22" y="109" fill="#cbd5e1" font-size="13">documented programs</text><text x="22" y="132" fill="#cbd5e1" font-size="13">10 TryHackMe + 4 other</text><text x="22" y="158" fill="#a78bfa" font-size="11" font-weight="700">VISIBLE BELOW</text></g>
<g transform="translate(970 94)"><rect width="188" height="176" rx="20" fill="#0f172a" stroke="#285257"/><text x="22" y="32" fill="#99f6e4" font-size="11" font-weight="700">OPERATING MODEL</text><text x="22" y="73" fill="#f8fafc" font-size="17" font-weight="800">Evidence</text><text x="22" y="99" fill="#cbd5e1" font-size="13">→ Context</text><text x="22" y="122" fill="#cbd5e1" font-size="13">→ Scope</text><text x="22" y="145" fill="#cbd5e1" font-size="13">→ Decision</text><text x="22" y="166" fill="#2dd4bf" font-size="11" font-weight="700">→ IMPROVEMENT</text></g>
</g>
</svg>