<svg xmlns="http://www.w3.org/2000/svg" width="1200" height="275" viewBox="0 0 1200 275" role="img" aria-label="Security operating system"><rect width="1200" height="275" rx="26" fill="#050b14"/><text x="42" y="43" fill="#94a3b8" font-family="Arial" font-size="13" font-weight="700" letter-spacing="2">SECURITY OPERATING SYSTEM</text><rect x="42" y="91" width="170" height="118" rx="18" fill="#0b1220" stroke="#26364e"/><text x="127.0" y="130" text-anchor="middle" fill="#f8fafc" font-family="Arial" font-size="14" font-weight="800">TELEMETRY</text><text x="127.0" y="160" text-anchor="middle" fill="#94a3b8" font-family="Arial" font-size="10">Windows · Sysmon · PCAP</text><text x="127.0" y="188" text-anchor="middle" fill="#60a5fa" font-family="Consolas" font-size="10">01</text><path d="M217 150H234" stroke="#60a5fa" stroke-width="3"/><path d="M228 144L235 150L228 156" fill="none" stroke="#60a5fa" stroke-width="2"/><rect x="234" y="91" width="170" height="118" rx="18" fill="#0b1220" stroke="#26364e"/><text x="319.0" y="130" text-anchor="middle" fill="#f8fafc" font-family="Arial" font-size="14" font-weight="800">NORMALIZE</text><text x="319.0" y="160" text-anchor="middle" fill="#94a3b8" font-family="Arial" font-size="10">events · flows · IOCs</text><text x="319.0" y="188" text-anchor="middle" fill="#60a5fa" font-family="Consolas" font-size="10">02</text><path d="M409 150H426" stroke="#60a5fa" stroke-width="3"/><path d="M420 144L427 150L420 156" fill="none" stroke="#60a5fa" stroke-width="2"/><rect x="426" y="91" width="170" height="118" rx="18" fill="#0b1220" stroke="#26364e"/><text x="511.0" y="130" text-anchor="middle" fill="#f8fafc" font-family="Arial" font-size="14" font-weight="800">DETECT</text><text x="511.0" y="160" text-anchor="middle" fill="#94a3b8" font-family="Arial" font-size="10">rules · heuristics · ATT&amp;CK</text><text x="511.0" y="188" text-anchor="middle" fill="#60a5fa" font-family="Consolas" font-size="10">03</text><path d="M601 150H618" stroke="#2dd4bf" stroke-width="3"/><path d="M612 144L619 150L612 156" fill="none" stroke="#2dd4bf" stroke-width="2"/><rect x="618" y="91" width="170" height="118" rx="18" fill="#0b1220" stroke="#26364e"/><text x="703.0" y="130" text-anchor="middle" fill="#f8fafc" font-family="Arial" font-size="14" font-weight="800">INVESTIGATE</text><text x="703.0" y="160" text-anchor="middle" fill="#94a3b8" font-family="Arial" font-size="10">timeline · scope · evidence</text><text x="703.0" y="188" text-anchor="middle" fill="#2dd4bf" font-family="Consolas" font-size="10">04</text><path d="M793 150H810" stroke="#2dd4bf" stroke-width="3"/><path d="M804 144L811 150L804 156" fill="none" stroke="#2dd4bf" stroke-width="2"/><rect x="810" y="91" width="170" height="118" rx="18" fill="#0b1220" stroke="#26364e"/><text x="895.0" y="130" text-anchor="middle" fill="#f8fafc" font-family="Arial" font-size="14" font-weight="800">DECIDE</text><text x="895.0" y="160" text-anchor="middle" fill="#94a3b8" font-family="Arial" font-size="10">escalate · contain · close</text><text x="895.0" y="188" text-anchor="middle" fill="#2dd4bf" font-family="Consolas" font-size="10">05</text><path d="M985 150H1002" stroke="#2dd4bf" stroke-width="3"/><path d="M996 144L1003 150L996 156" fill="none" stroke="#2dd4bf" stroke-width="2"/><rect x="1002" y="91" width="180" height="118" rx="18" fill="#0b1220" stroke="#26364e"/><text x="1092.0" y="130" text-anchor="middle" fill="#f8fafc" font-family="Arial" font-size="14" font-weight="800">IMPROVE</text><text x="1092.0" y="160" text-anchor="middle" fill="#94a3b8" font-family="Arial" font-size="10">tune · harden · retest</text><text x="1092.0" y="188" text-anchor="middle" fill="#2dd4bf" font-family="Consolas" font-size="10">06</text><text x="600" y="244" text-anchor="middle" fill="#94a3b8" font-family="Arial" font-size="11">The goal is not more alerts. The goal is better decisions and stronger controls.</text></svg>